<svg width="128" height="128" viewBox="0 0 128 128" fill="none" xmlns="http://www.w3.org/2000/svg">
	<g clip-path="url(#clip0_503_2)">
		<circle cx="64" cy="64" r="64" fill="#171717" />
		<g filter="url(#filter0_i_503_2)">
			<path
				d="M61.5875 56.28H51.2675V91H39.3475V56.28H32.7875V50.52L39.3475 47.32V44.12C39.3475 40.3867 39.9608 37.5067 41.1875 35.48C42.4675 33.4 44.2542 31.9333 46.5475 31.08C48.8942 30.2267 51.6408 29.8 54.7875 29.8C57.1342 29.8 59.2408 29.9867 61.1075 30.36C63.0275 30.7333 64.5742 31.16 65.7475 31.64L62.7075 40.36C61.8008 40.0933 60.8142 39.8533 59.7475 39.64C58.6808 39.3733 57.4542 39.24 56.0675 39.24C54.4142 39.24 53.1875 39.7467 52.3875 40.76C51.6408 41.7733 51.2675 43.0533 51.2675 44.6V47.32H61.5875V56.28ZM86.765 82.28C88.0983 82.28 89.3783 82.1467 90.605 81.88C91.8317 81.6133 93.0583 81.2933 94.285 80.92V89.8C93.005 90.3333 91.405 90.7867 89.485 91.16C87.6183 91.5867 85.565 91.8 83.325 91.8C80.7117 91.8 78.365 91.3733 76.285 90.52C74.2583 89.6667 72.6317 88.2 71.405 86.12C70.2317 83.9867 69.645 81.0533 69.645 77.32V56.28H63.965V51.24L70.525 47.24L73.965 38.04H81.565V47.32H93.805V56.28H81.565V77.32C81.565 78.9733 82.045 80.2267 83.005 81.08C83.965 81.88 85.2183 82.28 86.765 82.28Z"
				fill="url(#paint0_radial_503_2)" />
			<path
				d="M61.5875 56.28H51.2675V91H39.3475V56.28H32.7875V50.52L39.3475 47.32V44.12C39.3475 40.3867 39.9608 37.5067 41.1875 35.48C42.4675 33.4 44.2542 31.9333 46.5475 31.08C48.8942 30.2267 51.6408 29.8 54.7875 29.8C57.1342 29.8 59.2408 29.9867 61.1075 30.36C63.0275 30.7333 64.5742 31.16 65.7475 31.64L62.7075 40.36C61.8008 40.0933 60.8142 39.8533 59.7475 39.64C58.6808 39.3733 57.4542 39.24 56.0675 39.24C54.4142 39.24 53.1875 39.7467 52.3875 40.76C51.6408 41.7733 51.2675 43.0533 51.2675 44.6V47.32H61.5875V56.28ZM86.765 82.28C88.0983 82.28 89.3783 82.1467 90.605 81.88C91.8317 81.6133 93.0583 81.2933 94.285 80.92V89.8C93.005 90.3333 91.405 90.7867 89.485 91.16C87.6183 91.5867 85.565 91.8 83.325 91.8C80.7117 91.8 78.365 91.3733 76.285 90.52C74.2583 89.6667 72.6317 88.2 71.405 86.12C70.2317 83.9867 69.645 81.0533 69.645 77.32V56.28H63.965V51.24L70.525 47.24L73.965 38.04H81.565V47.32H93.805V56.28H81.565V77.32C81.565 78.9733 82.045 80.2267 83.005 81.08C83.965 81.88 85.2183 82.28 86.765 82.28Z"
				fill="url(#paint1_radial_503_2)" />
			<path
				d="M61.5875 56.28H51.2675V91H39.3475V56.28H32.7875V50.52L39.3475 47.32V44.12C39.3475 40.3867 39.9608 37.5067 41.1875 35.48C42.4675 33.4 44.2542 31.9333 46.5475 31.08C48.8942 30.2267 51.6408 29.8 54.7875 29.8C57.1342 29.8 59.2408 29.9867 61.1075 30.36C63.0275 30.7333 64.5742 31.16 65.7475 31.64L62.7075 40.36C61.8008 40.0933 60.8142 39.8533 59.7475 39.64C58.6808 39.3733 57.4542 39.24 56.0675 39.24C54.4142 39.24 53.1875 39.7467 52.3875 40.76C51.6408 41.7733 51.2675 43.0533 51.2675 44.6V47.32H61.5875V56.28ZM86.765 82.28C88.0983 82.28 89.3783 82.1467 90.605 81.88C91.8317 81.6133 93.0583 81.2933 94.285 80.92V89.8C93.005 90.3333 91.405 90.7867 89.485 91.16C87.6183 91.5867 85.565 91.8 83.325 91.8C80.7117 91.8 78.365 91.3733 76.285 90.52C74.2583 89.6667 72.6317 88.2 71.405 86.12C70.2317 83.9867 69.645 81.0533 69.645 77.32V56.28H63.965V51.24L70.525 47.24L73.965 38.04H81.565V47.32H93.805V56.28H81.565V77.32C81.565 78.9733 82.045 80.2267 83.005 81.08C83.965 81.88 85.2183 82.28 86.765 82.28Z"
				fill="white" fill-opacity="0.2" />
		</g>
	</g>
	<defs>
		<filter id="filter0_i_503_2" x="32.7876" y="29.8" width="61.4973" height="66" filterUnits="userSpaceOnUse"
			color-interpolation-filters="sRGB">
			<feFlood flood-opacity="0" result="BackgroundImageFix" />
			<feBlend mode="normal" in="SourceGraphic" in2="BackgroundImageFix" result="shape" />
			<feColorMatrix in="SourceAlpha" type="matrix" values="0 0 0 0 0 0 0 0 0 0 0 0 0 0 0 0 0 0 127 0"
				result="hardAlpha" />
			<feOffset dy="4" />
			<feGaussianBlur stdDeviation="2" />
			<feComposite in2="hardAlpha" operator="arithmetic" k2="-1" k3="1" />
			<feColorMatrix type="matrix" values="0 0 0 0 0 0 0 0 0 0 0 0 0 0 0 0 0 0 0.25 0" />
			<feBlend mode="normal" in2="shape" result="effect1_innerShadow_503_2" />
		</filter>
		<radialGradient id="paint0_radial_503_2" cx="0" cy="0" r="1" gradientUnits="userSpaceOnUse"
			gradientTransform="translate(21.8537 51.3684) rotate(28.63) scale(37.3468 34.8386)">
			<stop stop-color="#890CC4" />
			<stop offset="1" stop-color="#510A72" stop-opacity="0" />
		</radialGradient>
		<radialGradient id="paint1_radial_503_2" cx="0" cy="0" r="1" gradientUnits="userSpaceOnUse"
			gradientTransform="translate(99.1372 46.1277) rotate(110.397) scale(52.2096 78.22)">
			<stop stop-color="#7BC7D7" />
			<stop offset="1" stop-color="#EFF4F5" stop-opacity="0.5" />
		</radialGradient>
		<clipPath id="clip0_503_2">
			<rect width="128" height="128" fill="white" />
		</clipPath>
	</defs>
</svg>