<svg
	width="128"
	height="128"
	viewBox="0 0 128 128"
	fill="none"
	xmlns="http://www.w3.org/2000/svg"
>
	<g clip-path="url(#clip0_503_2)">
		<g filter="url(#filter0_i_503_2)">
			<path
				d="M33.252 107.456C32.3242 107.847 31.3477 107.822 30.3223 107.383C29.3457 106.943 28.7109 106.138 28.418 104.966C28.0762 103.55 27.832 102.012 27.6855 100.352C27.5879 98.6914 27.5391 97.0068 27.5391 95.2979C27.5391 94.0283 27.5635 92.7832 27.6123 91.5625C27.6611 90.3418 27.7832 89.1455 27.9785 87.9736C28.1738 86.8506 28.6621 85.9961 29.4434 85.4102C30.2734 84.7754 31.2256 84.5801 32.2998 84.8242C33.2764 85.0195 34.0088 85.5078 34.4971 86.2891C35.0342 87.0703 35.2539 87.9736 35.1562 88.999C35.0586 89.9268 34.9854 90.9033 34.9365 91.9287C34.8877 92.9541 34.8633 93.9551 34.8633 94.9316C34.8633 98.1055 35.083 100.864 35.5225 103.208C35.9131 105.21 35.1562 106.626 33.252 107.456ZM58.0078 58.3105C56.4941 58.3105 55.3955 57.8955 54.7119 57.0654C54.0283 56.2354 53.6865 55.1611 53.6865 53.8428V49.9609H49.8779C46.9482 49.9609 45.4834 48.4961 45.4834 45.5664C45.4834 42.6367 46.9482 41.1719 49.8779 41.1719H53.7598V37.3633C53.7598 34.4336 55.249 32.9688 58.2275 32.9688C61.1084 32.9688 62.5488 34.458 62.5488 37.4365V41.3184H66.3574C69.2871 41.3184 70.752 42.7832 70.752 45.7129C70.752 48.6426 69.2871 50.1074 66.3574 50.1074H62.4756V53.916C62.4756 56.8457 60.9863 58.3105 58.0078 58.3105ZM81.958 77.8662C79.126 77.8662 76.6846 76.8652 74.6338 74.8633C72.583 72.8613 71.5576 70.4199 71.5576 67.5391C71.5576 64.6582 72.5586 62.2168 74.5605 60.2148C76.6113 58.1641 79.0771 57.1387 81.958 57.1387C84.8389 57.1387 87.2803 58.1641 89.2822 60.2148C91.333 62.2168 92.3584 64.6582 92.3584 67.5391C92.3584 70.3711 91.333 72.8125 89.2822 74.8633C87.2314 76.8652 84.79 77.8662 81.958 77.8662ZM81.958 72.0068C83.1787 72.0068 84.2285 71.5674 85.1074 70.6885C86.0352 69.7607 86.499 68.7109 86.499 67.5391C86.499 66.2695 86.0596 65.1953 85.1807 64.3164C84.3018 63.4375 83.2275 62.998 81.958 62.998C80.6885 62.998 79.6143 63.4375 78.7354 64.3164C77.8564 65.1953 77.417 66.2695 77.417 67.5391C77.417 68.7598 77.8564 69.8096 78.7354 70.6885C79.6631 71.5674 80.7373 72.0068 81.958 72.0068ZM35.1562 117.197C37.9395 117.197 40.2344 116.88 42.041 116.245C43.8965 115.659 45.5811 114.39 47.0947 112.437C48.6084 110.483 50.293 107.529 52.1484 103.574C54.0527 99.6191 56.4697 94.3213 59.3994 87.6807C64.4775 86.8506 70.0195 86.2646 76.0254 85.9229C82.0801 85.5322 88.4766 85.3369 95.2148 85.3369C101.953 85.3369 108.35 85.5322 114.404 85.9229C120.459 86.2646 126.001 86.8506 131.03 87.6807C133.96 94.3213 136.353 99.6191 138.208 103.574C140.112 107.529 141.821 110.483 143.335 112.437C144.849 114.39 146.509 115.659 148.315 116.245C150.171 116.88 152.49 117.197 155.273 117.197C160.352 117.197 163.867 116.025 165.82 113.682C167.822 111.338 168.823 107.163 168.823 101.157C168.823 96.7139 168.262 90.5859 167.139 82.7734C166.064 74.9609 164.404 66.0742 162.158 56.1133C160.645 49.4238 158.838 43.9062 156.738 39.5605C154.688 35.2148 152.075 31.7969 148.901 29.3066C145.728 26.7676 141.772 24.9365 137.036 23.8135C132.3 22.6416 126.514 21.9092 119.678 21.6162C112.842 21.2744 104.712 21.1035 95.2881 21.1035C85.8643 21.1035 77.7344 21.2744 70.8984 21.6162C64.0625 21.9092 58.252 22.6416 53.4668 23.8135C48.7305 24.9365 44.751 26.7676 41.5283 29.3066C38.3545 31.7969 35.7178 35.2148 33.6182 39.5605C31.5674 43.9062 29.7852 49.4238 28.2715 56.1133C26.0254 66.0742 24.3408 74.9609 23.2178 82.7734C22.1436 90.5859 21.6064 96.7139 21.6064 101.157C21.6064 107.163 22.583 111.338 24.5361 113.682C26.5381 116.025 30.0781 117.197 35.1562 117.197ZM108.472 77.8662C105.64 77.8662 103.198 76.8652 101.147 74.8633C99.0967 72.8125 98.0713 70.3711 98.0713 67.5391C98.0713 64.6582 99.0967 62.2168 101.147 60.2148C103.198 58.1641 105.64 57.1387 108.472 57.1387C111.353 57.1387 113.794 58.1641 115.796 60.2148C117.847 62.2168 118.872 64.6582 118.872 67.5391C118.872 70.4199 117.847 72.8613 115.796 74.8633C113.794 76.8652 111.353 77.8662 108.472 77.8662ZM108.472 72.0068C109.741 72.0068 110.815 71.5674 111.694 70.6885C112.573 69.8096 113.013 68.7598 113.013 67.5391C113.013 66.2695 112.573 65.1953 111.694 64.3164C110.815 63.4375 109.741 62.998 108.472 62.998C107.251 62.998 106.177 63.4375 105.249 64.3164C104.37 65.1953 103.931 66.2695 103.931 67.5391C103.931 68.7109 104.37 69.7607 105.249 70.6885C106.177 71.5674 107.251 72.0068 108.472 72.0068ZM152.197 107.749C151.221 108.579 150.22 108.896 149.194 108.701C148.169 108.506 147.363 107.969 146.777 107.09C145.312 104.941 143.921 102.524 142.603 99.8389C141.284 97.1533 140.21 94.5654 139.38 92.0752C139.038 90.9521 139.111 89.9512 139.6 89.0723C140.088 88.1934 140.845 87.6562 141.87 87.4609C143.091 87.2168 144.043 87.3389 144.727 87.8271C145.459 88.3154 145.996 89.0234 146.338 89.9512C147.07 92.0508 147.998 94.248 149.121 96.543C150.244 98.8379 151.44 100.913 152.71 102.769C154.028 104.673 153.857 106.333 152.197 107.749ZM132.056 61.0938C130.64 61.0938 129.395 60.5811 128.32 59.5557C127.246 58.5303 126.709 57.3096 126.709 55.8936C126.709 54.4287 127.246 53.1836 128.32 52.1582C129.395 51.1328 130.64 50.6201 132.056 50.6201C133.521 50.6201 134.741 51.1328 135.718 52.1582C136.743 53.1836 137.256 54.4287 137.256 55.8936C137.256 57.3096 136.743 58.5303 135.718 59.5557C134.741 60.5811 133.521 61.0938 132.056 61.0938ZM121.802 50.4736C120.386 50.4736 119.165 49.9609 118.14 48.9355C117.114 47.8613 116.602 46.5918 116.602 45.127C116.602 43.7109 117.114 42.5146 118.14 41.5381C119.165 40.5127 120.386 40 121.802 40C123.267 40 124.512 40.5127 125.537 41.5381C126.562 42.5146 127.075 43.7109 127.075 45.127C127.075 46.5918 126.562 47.8613 125.537 48.9355C124.512 49.9609 123.267 50.4736 121.802 50.4736ZM142.603 51.499C141.187 51.499 139.941 50.9863 138.867 49.9609C137.842 48.8867 137.329 47.6416 137.329 46.2256C137.329 44.8096 137.842 43.5889 138.867 42.5635C139.941 41.5381 141.187 41.0254 142.603 41.0254C144.067 41.0254 145.312 41.5381 146.338 42.5635C147.363 43.5889 147.876 44.8096 147.876 46.2256C147.876 47.6416 147.363 48.8867 146.338 49.9609C145.312 50.9863 144.067 51.499 142.603 51.499ZM132.422 40.8057C131.006 40.8057 129.785 40.293 128.76 39.2676C127.734 38.1934 127.222 36.9482 127.222 35.5322C127.222 34.1162 127.734 32.8955 128.76 31.8701C129.785 30.8447 131.006 30.332 132.422 30.332C133.887 30.332 135.107 30.8447 136.084 31.8701C137.109 32.8955 137.622 34.1162 137.622 35.5322C137.622 36.9482 137.109 38.1934 136.084 39.2676C135.107 40.293 133.887 40.8057 132.422 40.8057ZM12.8174 101.157C12.8174 97.2021 13.1348 92.5391 13.7695 87.168C14.4531 81.7969 15.3076 76.2305 16.333 70.4688C17.4072 64.6582 18.5059 59.2383 19.6289 54.209C21.4844 45.957 23.8281 39.2432 26.6602 34.0674C29.4922 28.8428 33.0566 24.6924 37.3535 21.6162C37.8906 16.9775 39.8682 13.0713 43.2861 9.89746C46.7041 6.72363 51.6602 5.13672 58.1543 5.13672C61.3281 5.13672 63.5986 5.84473 64.9658 7.26074C66.333 8.62793 67.2607 10.5566 67.749 13.0469C71.7041 12.7539 75.9521 12.5586 80.4932 12.4609C85.083 12.3633 89.9902 12.3145 95.2148 12.3145C100.439 12.3145 105.322 12.3633 109.863 12.4609C114.453 12.5586 118.726 12.7539 122.681 13.0469C123.218 10.5566 124.17 8.62793 125.537 7.26074C126.904 5.84473 129.15 5.13672 132.275 5.13672C138.818 5.13672 143.774 6.72363 147.144 9.89746C150.562 13.0713 152.539 16.9775 153.076 21.6162C157.373 24.6436 160.938 28.7695 163.77 33.9941C166.602 39.2187 168.945 45.957 170.801 54.209C171.973 59.2383 173.071 64.6582 174.097 70.4688C175.122 76.2305 175.952 81.7969 176.587 87.168C177.271 92.5391 177.612 97.2021 177.612 101.157C177.612 109.507 175.806 115.732 172.192 119.834C168.579 123.936 162.939 125.986 155.273 125.986C150.977 125.986 147.412 125.449 144.58 124.375C141.797 123.301 139.38 121.592 137.329 119.248C135.327 116.904 133.374 113.804 131.47 109.946C129.614 106.04 127.466 101.279 125.024 95.6641C120.728 95.127 116.064 94.7363 111.035 94.4922C106.006 94.248 100.732 94.126 95.2148 94.126C89.6973 94.126 84.4238 94.248 79.3945 94.4922C74.4141 94.7363 69.751 95.127 65.4053 95.6641C63.0127 101.279 60.8643 106.04 58.96 109.946C57.0557 113.804 55.0781 116.904 53.0273 119.248C51.0254 121.592 48.6084 123.301 45.7764 124.375C42.9932 125.449 39.4531 125.986 35.1562 125.986C27.4902 125.986 21.8506 123.936 18.2373 119.834C14.624 115.732 12.8174 109.507 12.8174 101.157Z"
				fill="url(#paint0_radial_503_2)"
			/>
			<path
				d="M33.252 107.456C32.3242 107.847 31.3477 107.822 30.3223 107.383C29.3457 106.943 28.7109 106.138 28.418 104.966C28.0762 103.55 27.832 102.012 27.6855 100.352C27.5879 98.6914 27.5391 97.0068 27.5391 95.2979C27.5391 94.0283 27.5635 92.7832 27.6123 91.5625C27.6611 90.3418 27.7832 89.1455 27.9785 87.9736C28.1738 86.8506 28.6621 85.9961 29.4434 85.4102C30.2734 84.7754 31.2256 84.5801 32.2998 84.8242C33.2764 85.0195 34.0088 85.5078 34.4971 86.2891C35.0342 87.0703 35.2539 87.9736 35.1562 88.999C35.0586 89.9268 34.9854 90.9033 34.9365 91.9287C34.8877 92.9541 34.8633 93.9551 34.8633 94.9316C34.8633 98.1055 35.083 100.864 35.5225 103.208C35.9131 105.21 35.1562 106.626 33.252 107.456ZM58.0078 58.3105C56.4941 58.3105 55.3955 57.8955 54.7119 57.0654C54.0283 56.2354 53.6865 55.1611 53.6865 53.8428V49.9609H49.8779C46.9482 49.9609 45.4834 48.4961 45.4834 45.5664C45.4834 42.6367 46.9482 41.1719 49.8779 41.1719H53.7598V37.3633C53.7598 34.4336 55.249 32.9688 58.2275 32.9688C61.1084 32.9688 62.5488 34.458 62.5488 37.4365V41.3184H66.3574C69.2871 41.3184 70.752 42.7832 70.752 45.7129C70.752 48.6426 69.2871 50.1074 66.3574 50.1074H62.4756V53.916C62.4756 56.8457 60.9863 58.3105 58.0078 58.3105ZM81.958 77.8662C79.126 77.8662 76.6846 76.8652 74.6338 74.8633C72.583 72.8613 71.5576 70.4199 71.5576 67.5391C71.5576 64.6582 72.5586 62.2168 74.5605 60.2148C76.6113 58.1641 79.0771 57.1387 81.958 57.1387C84.8389 57.1387 87.2803 58.1641 89.2822 60.2148C91.333 62.2168 92.3584 64.6582 92.3584 67.5391C92.3584 70.3711 91.333 72.8125 89.2822 74.8633C87.2314 76.8652 84.79 77.8662 81.958 77.8662ZM81.958 72.0068C83.1787 72.0068 84.2285 71.5674 85.1074 70.6885C86.0352 69.7607 86.499 68.7109 86.499 67.5391C86.499 66.2695 86.0596 65.1953 85.1807 64.3164C84.3018 63.4375 83.2275 62.998 81.958 62.998C80.6885 62.998 79.6143 63.4375 78.7354 64.3164C77.8564 65.1953 77.417 66.2695 77.417 67.5391C77.417 68.7598 77.8564 69.8096 78.7354 70.6885C79.6631 71.5674 80.7373 72.0068 81.958 72.0068ZM35.1562 117.197C37.9395 117.197 40.2344 116.88 42.041 116.245C43.8965 115.659 45.5811 114.39 47.0947 112.437C48.6084 110.483 50.293 107.529 52.1484 103.574C54.0527 99.6191 56.4697 94.3213 59.3994 87.6807C64.4775 86.8506 70.0195 86.2646 76.0254 85.9229C82.0801 85.5322 88.4766 85.3369 95.2148 85.3369C101.953 85.3369 108.35 85.5322 114.404 85.9229C120.459 86.2646 126.001 86.8506 131.03 87.6807C133.96 94.3213 136.353 99.6191 138.208 103.574C140.112 107.529 141.821 110.483 143.335 112.437C144.849 114.39 146.509 115.659 148.315 116.245C150.171 116.88 152.49 117.197 155.273 117.197C160.352 117.197 163.867 116.025 165.82 113.682C167.822 111.338 168.823 107.163 168.823 101.157C168.823 96.7139 168.262 90.5859 167.139 82.7734C166.064 74.9609 164.404 66.0742 162.158 56.1133C160.645 49.4238 158.838 43.9062 156.738 39.5605C154.688 35.2148 152.075 31.7969 148.901 29.3066C145.728 26.7676 141.772 24.9365 137.036 23.8135C132.3 22.6416 126.514 21.9092 119.678 21.6162C112.842 21.2744 104.712 21.1035 95.2881 21.1035C85.8643 21.1035 77.7344 21.2744 70.8984 21.6162C64.0625 21.9092 58.252 22.6416 53.4668 23.8135C48.7305 24.9365 44.751 26.7676 41.5283 29.3066C38.3545 31.7969 35.7178 35.2148 33.6182 39.5605C31.5674 43.9062 29.7852 49.4238 28.2715 56.1133C26.0254 66.0742 24.3408 74.9609 23.2178 82.7734C22.1436 90.5859 21.6064 96.7139 21.6064 101.157C21.6064 107.163 22.583 111.338 24.5361 113.682C26.5381 116.025 30.0781 117.197 35.1562 117.197ZM108.472 77.8662C105.64 77.8662 103.198 76.8652 101.147 74.8633C99.0967 72.8125 98.0713 70.3711 98.0713 67.5391C98.0713 64.6582 99.0967 62.2168 101.147 60.2148C103.198 58.1641 105.64 57.1387 108.472 57.1387C111.353 57.1387 113.794 58.1641 115.796 60.2148C117.847 62.2168 118.872 64.6582 118.872 67.5391C118.872 70.4199 117.847 72.8613 115.796 74.8633C113.794 76.8652 111.353 77.8662 108.472 77.8662ZM108.472 72.0068C109.741 72.0068 110.815 71.5674 111.694 70.6885C112.573 69.8096 113.013 68.7598 113.013 67.5391C113.013 66.2695 112.573 65.1953 111.694 64.3164C110.815 63.4375 109.741 62.998 108.472 62.998C107.251 62.998 106.177 63.4375 105.249 64.3164C104.37 65.1953 103.931 66.2695 103.931 67.5391C103.931 68.7109 104.37 69.7607 105.249 70.6885C106.177 71.5674 107.251 72.0068 108.472 72.0068ZM152.197 107.749C151.221 108.579 150.22 108.896 149.194 108.701C148.169 108.506 147.363 107.969 146.777 107.09C145.312 104.941 143.921 102.524 142.603 99.8389C141.284 97.1533 140.21 94.5654 139.38 92.0752C139.038 90.9521 139.111 89.9512 139.6 89.0723C140.088 88.1934 140.845 87.6562 141.87 87.4609C143.091 87.2168 144.043 87.3389 144.727 87.8271C145.459 88.3154 145.996 89.0234 146.338 89.9512C147.07 92.0508 147.998 94.248 149.121 96.543C150.244 98.8379 151.44 100.913 152.71 102.769C154.028 104.673 153.857 106.333 152.197 107.749ZM132.056 61.0938C130.64 61.0938 129.395 60.5811 128.32 59.5557C127.246 58.5303 126.709 57.3096 126.709 55.8936C126.709 54.4287 127.246 53.1836 128.32 52.1582C129.395 51.1328 130.64 50.6201 132.056 50.6201C133.521 50.6201 134.741 51.1328 135.718 52.1582C136.743 53.1836 137.256 54.4287 137.256 55.8936C137.256 57.3096 136.743 58.5303 135.718 59.5557C134.741 60.5811 133.521 61.0938 132.056 61.0938ZM121.802 50.4736C120.386 50.4736 119.165 49.9609 118.14 48.9355C117.114 47.8613 116.602 46.5918 116.602 45.127C116.602 43.7109 117.114 42.5146 118.14 41.5381C119.165 40.5127 120.386 40 121.802 40C123.267 40 124.512 40.5127 125.537 41.5381C126.562 42.5146 127.075 43.7109 127.075 45.127C127.075 46.5918 126.562 47.8613 125.537 48.9355C124.512 49.9609 123.267 50.4736 121.802 50.4736ZM142.603 51.499C141.187 51.499 139.941 50.9863 138.867 49.9609C137.842 48.8867 137.329 47.6416 137.329 46.2256C137.329 44.8096 137.842 43.5889 138.867 42.5635C139.941 41.5381 141.187 41.0254 142.603 41.0254C144.067 41.0254 145.312 41.5381 146.338 42.5635C147.363 43.5889 147.876 44.8096 147.876 46.2256C147.876 47.6416 147.363 48.8867 146.338 49.9609C145.312 50.9863 144.067 51.499 142.603 51.499ZM132.422 40.8057C131.006 40.8057 129.785 40.293 128.76 39.2676C127.734 38.1934 127.222 36.9482 127.222 35.5322C127.222 34.1162 127.734 32.8955 128.76 31.8701C129.785 30.8447 131.006 30.332 132.422 30.332C133.887 30.332 135.107 30.8447 136.084 31.8701C137.109 32.8955 137.622 34.1162 137.622 35.5322C137.622 36.9482 137.109 38.1934 136.084 39.2676C135.107 40.293 133.887 40.8057 132.422 40.8057ZM12.8174 101.157C12.8174 97.2021 13.1348 92.5391 13.7695 87.168C14.4531 81.7969 15.3076 76.2305 16.333 70.4688C17.4072 64.6582 18.5059 59.2383 19.6289 54.209C21.4844 45.957 23.8281 39.2432 26.6602 34.0674C29.4922 28.8428 33.0566 24.6924 37.3535 21.6162C37.8906 16.9775 39.8682 13.0713 43.2861 9.89746C46.7041 6.72363 51.6602 5.13672 58.1543 5.13672C61.3281 5.13672 63.5986 5.84473 64.9658 7.26074C66.333 8.62793 67.2607 10.5566 67.749 13.0469C71.7041 12.7539 75.9521 12.5586 80.4932 12.4609C85.083 12.3633 89.9902 12.3145 95.2148 12.3145C100.439 12.3145 105.322 12.3633 109.863 12.4609C114.453 12.5586 118.726 12.7539 122.681 13.0469C123.218 10.5566 124.17 8.62793 125.537 7.26074C126.904 5.84473 129.15 5.13672 132.275 5.13672C138.818 5.13672 143.774 6.72363 147.144 9.89746C150.562 13.0713 152.539 16.9775 153.076 21.6162C157.373 24.6436 160.938 28.7695 163.77 33.9941C166.602 39.2187 168.945 45.957 170.801 54.209C171.973 59.2383 173.071 64.6582 174.097 70.4688C175.122 76.2305 175.952 81.7969 176.587 87.168C177.271 92.5391 177.612 97.2021 177.612 101.157C177.612 109.507 175.806 115.732 172.192 119.834C168.579 123.936 162.939 125.986 155.273 125.986C150.977 125.986 147.412 125.449 144.58 124.375C141.797 123.301 139.38 121.592 137.329 119.248C135.327 116.904 133.374 113.804 131.47 109.946C129.614 106.04 127.466 101.279 125.024 95.6641C120.728 95.127 116.064 94.7363 111.035 94.4922C106.006 94.248 100.732 94.126 95.2148 94.126C89.6973 94.126 84.4238 94.248 79.3945 94.4922C74.4141 94.7363 69.751 95.127 65.4053 95.6641C63.0127 101.279 60.8643 106.04 58.96 109.946C57.0557 113.804 55.0781 116.904 53.0273 119.248C51.0254 121.592 48.6084 123.301 45.7764 124.375C42.9932 125.449 39.4531 125.986 35.1562 125.986C27.4902 125.986 21.8506 123.936 18.2373 119.834C14.624 115.732 12.8174 109.507 12.8174 101.157Z"
				fill="url(#paint1_radial_503_2)"
			/>
			<path
				d="M33.252 107.456C32.3242 107.847 31.3477 107.822 30.3223 107.383C29.3457 106.943 28.7109 106.138 28.418 104.966C28.0762 103.55 27.832 102.012 27.6855 100.352C27.5879 98.6914 27.5391 97.0068 27.5391 95.2979C27.5391 94.0283 27.5635 92.7832 27.6123 91.5625C27.6611 90.3418 27.7832 89.1455 27.9785 87.9736C28.1738 86.8506 28.6621 85.9961 29.4434 85.4102C30.2734 84.7754 31.2256 84.5801 32.2998 84.8242C33.2764 85.0195 34.0088 85.5078 34.4971 86.2891C35.0342 87.0703 35.2539 87.9736 35.1562 88.999C35.0586 89.9268 34.9854 90.9033 34.9365 91.9287C34.8877 92.9541 34.8633 93.9551 34.8633 94.9316C34.8633 98.1055 35.083 100.864 35.5225 103.208C35.9131 105.21 35.1562 106.626 33.252 107.456ZM58.0078 58.3105C56.4941 58.3105 55.3955 57.8955 54.7119 57.0654C54.0283 56.2354 53.6865 55.1611 53.6865 53.8428V49.9609H49.8779C46.9482 49.9609 45.4834 48.4961 45.4834 45.5664C45.4834 42.6367 46.9482 41.1719 49.8779 41.1719H53.7598V37.3633C53.7598 34.4336 55.249 32.9688 58.2275 32.9688C61.1084 32.9688 62.5488 34.458 62.5488 37.4365V41.3184H66.3574C69.2871 41.3184 70.752 42.7832 70.752 45.7129C70.752 48.6426 69.2871 50.1074 66.3574 50.1074H62.4756V53.916C62.4756 56.8457 60.9863 58.3105 58.0078 58.3105ZM81.958 77.8662C79.126 77.8662 76.6846 76.8652 74.6338 74.8633C72.583 72.8613 71.5576 70.4199 71.5576 67.5391C71.5576 64.6582 72.5586 62.2168 74.5605 60.2148C76.6113 58.1641 79.0771 57.1387 81.958 57.1387C84.8389 57.1387 87.2803 58.1641 89.2822 60.2148C91.333 62.2168 92.3584 64.6582 92.3584 67.5391C92.3584 70.3711 91.333 72.8125 89.2822 74.8633C87.2314 76.8652 84.79 77.8662 81.958 77.8662ZM81.958 72.0068C83.1787 72.0068 84.2285 71.5674 85.1074 70.6885C86.0352 69.7607 86.499 68.7109 86.499 67.5391C86.499 66.2695 86.0596 65.1953 85.1807 64.3164C84.3018 63.4375 83.2275 62.998 81.958 62.998C80.6885 62.998 79.6143 63.4375 78.7354 64.3164C77.8564 65.1953 77.417 66.2695 77.417 67.5391C77.417 68.7598 77.8564 69.8096 78.7354 70.6885C79.6631 71.5674 80.7373 72.0068 81.958 72.0068ZM35.1562 117.197C37.9395 117.197 40.2344 116.88 42.041 116.245C43.8965 115.659 45.5811 114.39 47.0947 112.437C48.6084 110.483 50.293 107.529 52.1484 103.574C54.0527 99.6191 56.4697 94.3213 59.3994 87.6807C64.4775 86.8506 70.0195 86.2646 76.0254 85.9229C82.0801 85.5322 88.4766 85.3369 95.2148 85.3369C101.953 85.3369 108.35 85.5322 114.404 85.9229C120.459 86.2646 126.001 86.8506 131.03 87.6807C133.96 94.3213 136.353 99.6191 138.208 103.574C140.112 107.529 141.821 110.483 143.335 112.437C144.849 114.39 146.509 115.659 148.315 116.245C150.171 116.88 152.49 117.197 155.273 117.197C160.352 117.197 163.867 116.025 165.82 113.682C167.822 111.338 168.823 107.163 168.823 101.157C168.823 96.7139 168.262 90.5859 167.139 82.7734C166.064 74.9609 164.404 66.0742 162.158 56.1133C160.645 49.4238 158.838 43.9062 156.738 39.5605C154.688 35.2148 152.075 31.7969 148.901 29.3066C145.728 26.7676 141.772 24.9365 137.036 23.8135C132.3 22.6416 126.514 21.9092 119.678 21.6162C112.842 21.2744 104.712 21.1035 95.2881 21.1035C85.8643 21.1035 77.7344 21.2744 70.8984 21.6162C64.0625 21.9092 58.252 22.6416 53.4668 23.8135C48.7305 24.9365 44.751 26.7676 41.5283 29.3066C38.3545 31.7969 35.7178 35.2148 33.6182 39.5605C31.5674 43.9062 29.7852 49.4238 28.2715 56.1133C26.0254 66.0742 24.3408 74.9609 23.2178 82.7734C22.1436 90.5859 21.6064 96.7139 21.6064 101.157C21.6064 107.163 22.583 111.338 24.5361 113.682C26.5381 116.025 30.0781 117.197 35.1562 117.197ZM108.472 77.8662C105.64 77.8662 103.198 76.8652 101.147 74.8633C99.0967 72.8125 98.0713 70.3711 98.0713 67.5391C98.0713 64.6582 99.0967 62.2168 101.147 60.2148C103.198 58.1641 105.64 57.1387 108.472 57.1387C111.353 57.1387 113.794 58.1641 115.796 60.2148C117.847 62.2168 118.872 64.6582 118.872 67.5391C118.872 70.4199 117.847 72.8613 115.796 74.8633C113.794 76.8652 111.353 77.8662 108.472 77.8662ZM108.472 72.0068C109.741 72.0068 110.815 71.5674 111.694 70.6885C112.573 69.8096 113.013 68.7598 113.013 67.5391C113.013 66.2695 112.573 65.1953 111.694 64.3164C110.815 63.4375 109.741 62.998 108.472 62.998C107.251 62.998 106.177 63.4375 105.249 64.3164C104.37 65.1953 103.931 66.2695 103.931 67.5391C103.931 68.7109 104.37 69.7607 105.249 70.6885C106.177 71.5674 107.251 72.0068 108.472 72.0068ZM152.197 107.749C151.221 108.579 150.22 108.896 149.194 108.701C148.169 108.506 147.363 107.969 146.777 107.09C145.312 104.941 143.921 102.524 142.603 99.8389C141.284 97.1533 140.21 94.5654 139.38 92.0752C139.038 90.9521 139.111 89.9512 139.6 89.0723C140.088 88.1934 140.845 87.6562 141.87 87.4609C143.091 87.2168 144.043 87.3389 144.727 87.8271C145.459 88.3154 145.996 89.0234 146.338 89.9512C147.07 92.0508 147.998 94.248 149.121 96.543C150.244 98.8379 151.44 100.913 152.71 102.769C154.028 104.673 153.857 106.333 152.197 107.749ZM132.056 61.0938C130.64 61.0938 129.395 60.5811 128.32 59.5557C127.246 58.5303 126.709 57.3096 126.709 55.8936C126.709 54.4287 127.246 53.1836 128.32 52.1582C129.395 51.1328 130.64 50.6201 132.056 50.6201C133.521 50.6201 134.741 51.1328 135.718 52.1582C136.743 53.1836 137.256 54.4287 137.256 55.8936C137.256 57.3096 136.743 58.5303 135.718 59.5557C134.741 60.5811 133.521 61.0938 132.056 61.0938ZM121.802 50.4736C120.386 50.4736 119.165 49.9609 118.14 48.9355C117.114 47.8613 116.602 46.5918 116.602 45.127C116.602 43.7109 117.114 42.5146 118.14 41.5381C119.165 40.5127 120.386 40 121.802 40C123.267 40 124.512 40.5127 125.537 41.5381C126.562 42.5146 127.075 43.7109 127.075 45.127C127.075 46.5918 126.562 47.8613 125.537 48.9355C124.512 49.9609 123.267 50.4736 121.802 50.4736ZM142.603 51.499C141.187 51.499 139.941 50.9863 138.867 49.9609C137.842 48.8867 137.329 47.6416 137.329 46.2256C137.329 44.8096 137.842 43.5889 138.867 42.5635C139.941 41.5381 141.187 41.0254 142.603 41.0254C144.067 41.0254 145.312 41.5381 146.338 42.5635C147.363 43.5889 147.876 44.8096 147.876 46.2256C147.876 47.6416 147.363 48.8867 146.338 49.9609C145.312 50.9863 144.067 51.499 142.603 51.499ZM132.422 40.8057C131.006 40.8057 129.785 40.293 128.76 39.2676C127.734 38.1934 127.222 36.9482 127.222 35.5322C127.222 34.1162 127.734 32.8955 128.76 31.8701C129.785 30.8447 131.006 30.332 132.422 30.332C133.887 30.332 135.107 30.8447 136.084 31.8701C137.109 32.8955 137.622 34.1162 137.622 35.5322C137.622 36.9482 137.109 38.1934 136.084 39.2676C135.107 40.293 133.887 40.8057 132.422 40.8057ZM12.8174 101.157C12.8174 97.2021 13.1348 92.5391 13.7695 87.168C14.4531 81.7969 15.3076 76.2305 16.333 70.4688C17.4072 64.6582 18.5059 59.2383 19.6289 54.209C21.4844 45.957 23.8281 39.2432 26.6602 34.0674C29.4922 28.8428 33.0566 24.6924 37.3535 21.6162C37.8906 16.9775 39.8682 13.0713 43.2861 9.89746C46.7041 6.72363 51.6602 5.13672 58.1543 5.13672C61.3281 5.13672 63.5986 5.84473 64.9658 7.26074C66.333 8.62793 67.2607 10.5566 67.749 13.0469C71.7041 12.7539 75.9521 12.5586 80.4932 12.4609C85.083 12.3633 89.9902 12.3145 95.2148 12.3145C100.439 12.3145 105.322 12.3633 109.863 12.4609C114.453 12.5586 118.726 12.7539 122.681 13.0469C123.218 10.5566 124.17 8.62793 125.537 7.26074C126.904 5.84473 129.15 5.13672 132.275 5.13672C138.818 5.13672 143.774 6.72363 147.144 9.89746C150.562 13.0713 152.539 16.9775 153.076 21.6162C157.373 24.6436 160.938 28.7695 163.77 33.9941C166.602 39.2187 168.945 45.957 170.801 54.209C171.973 59.2383 173.071 64.6582 174.097 70.4688C175.122 76.2305 175.952 81.7969 176.587 87.168C177.271 92.5391 177.612 97.2021 177.612 101.157C177.612 109.507 175.806 115.732 172.192 119.834C168.579 123.936 162.939 125.986 155.273 125.986C150.977 125.986 147.412 125.449 144.58 124.375C141.797 123.301 139.38 121.592 137.329 119.248C135.327 116.904 133.374 113.804 131.47 109.946C129.614 106.04 127.466 101.279 125.024 95.6641C120.728 95.127 116.064 94.7363 111.035 94.4922C106.006 94.248 100.732 94.126 95.2148 94.126C89.6973 94.126 84.4238 94.248 79.3945 94.4922C74.4141 94.7363 69.751 95.127 65.4053 95.6641C63.0127 101.279 60.8643 106.04 58.96 109.946C57.0557 113.804 55.0781 116.904 53.0273 119.248C51.0254 121.592 48.6084 123.301 45.7764 124.375C42.9932 125.449 39.4531 125.986 35.1562 125.986C27.4902 125.986 21.8506 123.936 18.2373 119.834C14.624 115.732 12.8174 109.507 12.8174 101.157Z"
				fill="url(#paint2_radial_503_2)"
			/>
			<path
				d="M33.252 107.456C32.3242 107.847 31.3477 107.822 30.3223 107.383C29.3457 106.943 28.7109 106.138 28.418 104.966C28.0762 103.55 27.832 102.012 27.6855 100.352C27.5879 98.6914 27.5391 97.0068 27.5391 95.2979C27.5391 94.0283 27.5635 92.7832 27.6123 91.5625C27.6611 90.3418 27.7832 89.1455 27.9785 87.9736C28.1738 86.8506 28.6621 85.9961 29.4434 85.4102C30.2734 84.7754 31.2256 84.5801 32.2998 84.8242C33.2764 85.0195 34.0088 85.5078 34.4971 86.2891C35.0342 87.0703 35.2539 87.9736 35.1562 88.999C35.0586 89.9268 34.9854 90.9033 34.9365 91.9287C34.8877 92.9541 34.8633 93.9551 34.8633 94.9316C34.8633 98.1055 35.083 100.864 35.5225 103.208C35.9131 105.21 35.1562 106.626 33.252 107.456ZM58.0078 58.3105C56.4941 58.3105 55.3955 57.8955 54.7119 57.0654C54.0283 56.2354 53.6865 55.1611 53.6865 53.8428V49.9609H49.8779C46.9482 49.9609 45.4834 48.4961 45.4834 45.5664C45.4834 42.6367 46.9482 41.1719 49.8779 41.1719H53.7598V37.3633C53.7598 34.4336 55.249 32.9688 58.2275 32.9688C61.1084 32.9688 62.5488 34.458 62.5488 37.4365V41.3184H66.3574C69.2871 41.3184 70.752 42.7832 70.752 45.7129C70.752 48.6426 69.2871 50.1074 66.3574 50.1074H62.4756V53.916C62.4756 56.8457 60.9863 58.3105 58.0078 58.3105ZM81.958 77.8662C79.126 77.8662 76.6846 76.8652 74.6338 74.8633C72.583 72.8613 71.5576 70.4199 71.5576 67.5391C71.5576 64.6582 72.5586 62.2168 74.5605 60.2148C76.6113 58.1641 79.0771 57.1387 81.958 57.1387C84.8389 57.1387 87.2803 58.1641 89.2822 60.2148C91.333 62.2168 92.3584 64.6582 92.3584 67.5391C92.3584 70.3711 91.333 72.8125 89.2822 74.8633C87.2314 76.8652 84.79 77.8662 81.958 77.8662ZM81.958 72.0068C83.1787 72.0068 84.2285 71.5674 85.1074 70.6885C86.0352 69.7607 86.499 68.7109 86.499 67.5391C86.499 66.2695 86.0596 65.1953 85.1807 64.3164C84.3018 63.4375 83.2275 62.998 81.958 62.998C80.6885 62.998 79.6143 63.4375 78.7354 64.3164C77.8564 65.1953 77.417 66.2695 77.417 67.5391C77.417 68.7598 77.8564 69.8096 78.7354 70.6885C79.6631 71.5674 80.7373 72.0068 81.958 72.0068ZM35.1562 117.197C37.9395 117.197 40.2344 116.88 42.041 116.245C43.8965 115.659 45.5811 114.39 47.0947 112.437C48.6084 110.483 50.293 107.529 52.1484 103.574C54.0527 99.6191 56.4697 94.3213 59.3994 87.6807C64.4775 86.8506 70.0195 86.2646 76.0254 85.9229C82.0801 85.5322 88.4766 85.3369 95.2148 85.3369C101.953 85.3369 108.35 85.5322 114.404 85.9229C120.459 86.2646 126.001 86.8506 131.03 87.6807C133.96 94.3213 136.353 99.6191 138.208 103.574C140.112 107.529 141.821 110.483 143.335 112.437C144.849 114.39 146.509 115.659 148.315 116.245C150.171 116.88 152.49 117.197 155.273 117.197C160.352 117.197 163.867 116.025 165.82 113.682C167.822 111.338 168.823 107.163 168.823 101.157C168.823 96.7139 168.262 90.5859 167.139 82.7734C166.064 74.9609 164.404 66.0742 162.158 56.1133C160.645 49.4238 158.838 43.9062 156.738 39.5605C154.688 35.2148 152.075 31.7969 148.901 29.3066C145.728 26.7676 141.772 24.9365 137.036 23.8135C132.3 22.6416 126.514 21.9092 119.678 21.6162C112.842 21.2744 104.712 21.1035 95.2881 21.1035C85.8643 21.1035 77.7344 21.2744 70.8984 21.6162C64.0625 21.9092 58.252 22.6416 53.4668 23.8135C48.7305 24.9365 44.751 26.7676 41.5283 29.3066C38.3545 31.7969 35.7178 35.2148 33.6182 39.5605C31.5674 43.9062 29.7852 49.4238 28.2715 56.1133C26.0254 66.0742 24.3408 74.9609 23.2178 82.7734C22.1436 90.5859 21.6064 96.7139 21.6064 101.157C21.6064 107.163 22.583 111.338 24.5361 113.682C26.5381 116.025 30.0781 117.197 35.1562 117.197ZM108.472 77.8662C105.64 77.8662 103.198 76.8652 101.147 74.8633C99.0967 72.8125 98.0713 70.3711 98.0713 67.5391C98.0713 64.6582 99.0967 62.2168 101.147 60.2148C103.198 58.1641 105.64 57.1387 108.472 57.1387C111.353 57.1387 113.794 58.1641 115.796 60.2148C117.847 62.2168 118.872 64.6582 118.872 67.5391C118.872 70.4199 117.847 72.8613 115.796 74.8633C113.794 76.8652 111.353 77.8662 108.472 77.8662ZM108.472 72.0068C109.741 72.0068 110.815 71.5674 111.694 70.6885C112.573 69.8096 113.013 68.7598 113.013 67.5391C113.013 66.2695 112.573 65.1953 111.694 64.3164C110.815 63.4375 109.741 62.998 108.472 62.998C107.251 62.998 106.177 63.4375 105.249 64.3164C104.37 65.1953 103.931 66.2695 103.931 67.5391C103.931 68.7109 104.37 69.7607 105.249 70.6885C106.177 71.5674 107.251 72.0068 108.472 72.0068ZM152.197 107.749C151.221 108.579 150.22 108.896 149.194 108.701C148.169 108.506 147.363 107.969 146.777 107.09C145.312 104.941 143.921 102.524 142.603 99.8389C141.284 97.1533 140.21 94.5654 139.38 92.0752C139.038 90.9521 139.111 89.9512 139.6 89.0723C140.088 88.1934 140.845 87.6562 141.87 87.4609C143.091 87.2168 144.043 87.3389 144.727 87.8271C145.459 88.3154 145.996 89.0234 146.338 89.9512C147.07 92.0508 147.998 94.248 149.121 96.543C150.244 98.8379 151.44 100.913 152.71 102.769C154.028 104.673 153.857 106.333 152.197 107.749ZM132.056 61.0938C130.64 61.0938 129.395 60.5811 128.32 59.5557C127.246 58.5303 126.709 57.3096 126.709 55.8936C126.709 54.4287 127.246 53.1836 128.32 52.1582C129.395 51.1328 130.64 50.6201 132.056 50.6201C133.521 50.6201 134.741 51.1328 135.718 52.1582C136.743 53.1836 137.256 54.4287 137.256 55.8936C137.256 57.3096 136.743 58.5303 135.718 59.5557C134.741 60.5811 133.521 61.0938 132.056 61.0938ZM121.802 50.4736C120.386 50.4736 119.165 49.9609 118.14 48.9355C117.114 47.8613 116.602 46.5918 116.602 45.127C116.602 43.7109 117.114 42.5146 118.14 41.5381C119.165 40.5127 120.386 40 121.802 40C123.267 40 124.512 40.5127 125.537 41.5381C126.562 42.5146 127.075 43.7109 127.075 45.127C127.075 46.5918 126.562 47.8613 125.537 48.9355C124.512 49.9609 123.267 50.4736 121.802 50.4736ZM142.603 51.499C141.187 51.499 139.941 50.9863 138.867 49.9609C137.842 48.8867 137.329 47.6416 137.329 46.2256C137.329 44.8096 137.842 43.5889 138.867 42.5635C139.941 41.5381 141.187 41.0254 142.603 41.0254C144.067 41.0254 145.312 41.5381 146.338 42.5635C147.363 43.5889 147.876 44.8096 147.876 46.2256C147.876 47.6416 147.363 48.8867 146.338 49.9609C145.312 50.9863 144.067 51.499 142.603 51.499ZM132.422 40.8057C131.006 40.8057 129.785 40.293 128.76 39.2676C127.734 38.1934 127.222 36.9482 127.222 35.5322C127.222 34.1162 127.734 32.8955 128.76 31.8701C129.785 30.8447 131.006 30.332 132.422 30.332C133.887 30.332 135.107 30.8447 136.084 31.8701C137.109 32.8955 137.622 34.1162 137.622 35.5322C137.622 36.9482 137.109 38.1934 136.084 39.2676C135.107 40.293 133.887 40.8057 132.422 40.8057ZM12.8174 101.157C12.8174 97.2021 13.1348 92.5391 13.7695 87.168C14.4531 81.7969 15.3076 76.2305 16.333 70.4688C17.4072 64.6582 18.5059 59.2383 19.6289 54.209C21.4844 45.957 23.8281 39.2432 26.6602 34.0674C29.4922 28.8428 33.0566 24.6924 37.3535 21.6162C37.8906 16.9775 39.8682 13.0713 43.2861 9.89746C46.7041 6.72363 51.6602 5.13672 58.1543 5.13672C61.3281 5.13672 63.5986 5.84473 64.9658 7.26074C66.333 8.62793 67.2607 10.5566 67.749 13.0469C71.7041 12.7539 75.9521 12.5586 80.4932 12.4609C85.083 12.3633 89.9902 12.3145 95.2148 12.3145C100.439 12.3145 105.322 12.3633 109.863 12.4609C114.453 12.5586 118.726 12.7539 122.681 13.0469C123.218 10.5566 124.17 8.62793 125.537 7.26074C126.904 5.84473 129.15 5.13672 132.275 5.13672C138.818 5.13672 143.774 6.72363 147.144 9.89746C150.562 13.0713 152.539 16.9775 153.076 21.6162C157.373 24.6436 160.938 28.7695 163.77 33.9941C166.602 39.2187 168.945 45.957 170.801 54.209C171.973 59.2383 173.071 64.6582 174.097 70.4688C175.122 76.2305 175.952 81.7969 176.587 87.168C177.271 92.5391 177.612 97.2021 177.612 101.157C177.612 109.507 175.806 115.732 172.192 119.834C168.579 123.936 162.939 125.986 155.273 125.986C150.977 125.986 147.412 125.449 144.58 124.375C141.797 123.301 139.38 121.592 137.329 119.248C135.327 116.904 133.374 113.804 131.47 109.946C129.614 106.04 127.466 101.279 125.024 95.6641C120.728 95.127 116.064 94.7363 111.035 94.4922C106.006 94.248 100.732 94.126 95.2148 94.126C89.6973 94.126 84.4238 94.248 79.3945 94.4922C74.4141 94.7363 69.751 95.127 65.4053 95.6641C63.0127 101.279 60.8643 106.04 58.96 109.946C57.0557 113.804 55.0781 116.904 53.0273 119.248C51.0254 121.592 48.6084 123.301 45.7764 124.375C42.9932 125.449 39.4531 125.986 35.1562 125.986C27.4902 125.986 21.8506 123.936 18.2373 119.834C14.624 115.732 12.8174 109.507 12.8174 101.157Z"
				fill="white"
				fill-opacity="0.2"
			/>
		</g>
	</g>
	<defs>
		<filter
			id="filter0_i_503_2"
			x="12.8174"
			y="5.13672"
			width="164.795"
			height="124.85"
			filterUnits="userSpaceOnUse"
			color-interpolation-filters="sRGB"
		>
			<feFlood flood-opacity="0" result="BackgroundImageFix" />
			<feBlend
				mode="normal"
				in="SourceGraphic"
				in2="BackgroundImageFix"
				result="shape"
			/>
			<feColorMatrix
				in="SourceAlpha"
				type="matrix"
				values="0 0 0 0 0 0 0 0 0 0 0 0 0 0 0 0 0 0 127 0"
				result="hardAlpha"
			/>
			<feOffset dy="4" />
			<feGaussianBlur stdDeviation="2" />
			<feComposite in2="hardAlpha" operator="arithmetic" k2="-1" k3="1" />
			<feColorMatrix
				type="matrix"
				values="0 0 0 0 0 0 0 0 0 0 0 0 0 0 0 0 0 0 0.25 0"
			/>
			<feBlend mode="normal" in2="shape" result="effect1_innerShadow_503_2" />
		</filter>
		<radialGradient
			id="paint0_radial_503_2"
			cx="0"
			cy="0"
			r="1"
			gradientUnits="userSpaceOnUse"
			gradientTransform="translate(97.8293 20) rotate(90) scale(120.421 130.684)"
		>
			<stop stop-color="#742020" stop-opacity="0" />
			<stop offset="1" stop-color="#DA3D3D" />
		</radialGradient>
		<radialGradient
			id="paint1_radial_503_2"
			cx="0"
			cy="0"
			r="1"
			gradientUnits="userSpaceOnUse"
			gradientTransform="translate(32.6098 36.2105) rotate(38.8285) scale(62.7894 68.0258)"
		>
			<stop stop-color="#890CC4" />
			<stop offset="1" stop-color="#510A72" stop-opacity="0" />
		</radialGradient>
		<radialGradient
			id="paint2_radial_503_2"
			cx="0"
			cy="0"
			r="1"
			gradientUnits="userSpaceOnUse"
			gradientTransform="translate(147.931 24.6808) rotate(104.155) scale(111.031 120.746)"
		>
			<stop stop-color="#7BC7D7" />
			<stop offset="1" stop-color="#EFF4F5" stop-opacity="0.5" />
		</radialGradient>
		<clipPath id="clip0_503_2">
			<rect width="128" height="128" fill="white" />
		</clipPath>
	</defs>
</svg>
